<svg width="24" height="24" viewBox="0 0 24 24" fill="none" xmlns="http://www.w3.org/2000/svg">
<path d="M4.7999 3.59961C4.16338 3.59961 3.55293 3.85247 3.10285 4.30255C2.65276 4.75264 2.3999 5.36309 2.3999 5.99961C2.3999 6.63613 2.65276 7.24658 3.10285 7.69667C3.55293 8.14675 4.16338 8.39961 4.7999 8.39961H19.1999C19.8364 8.39961 20.4469 8.14675 20.897 7.69667C21.347 7.24658 21.5999 6.63613 21.5999 5.99961C21.5999 5.36309 21.347 4.75264 20.897 4.30255C20.4469 3.85247 19.8364 3.59961 19.1999 3.59961H4.7999Z" fill="black"/>
<path fill-rule="evenodd" clip-rule="evenodd" d="M3.6001 9.59961H20.4001V17.9996C20.4001 18.6361 20.1472 19.2466 19.6972 19.6967C19.2471 20.1468 18.6366 20.3996 18.0001 20.3996H6.0001C5.36358 20.3996 4.75313 20.1468 4.30304 19.6967C3.85295 19.2466 3.6001 18.6361 3.6001 17.9996V9.59961ZM9.6001 13.1996C9.6001 12.8813 9.72653 12.5761 9.95157 12.3511C10.1766 12.126 10.4818 11.9996 10.8001 11.9996H13.2001C13.5184 11.9996 13.8236 12.126 14.0486 12.3511C14.2737 12.5761 14.4001 12.8813 14.4001 13.1996C14.4001 13.5179 14.2737 13.8231 14.0486 14.0481C13.8236 14.2732 13.5184 14.3996 13.2001 14.3996H10.8001C10.4818 14.3996 10.1766 14.2732 9.95157 14.0481C9.72653 13.8231 9.6001 13.5179 9.6001 13.1996Z" fill="black"/>
</svg>
