<svg width="14" height="14" viewBox="0 0 14 14" fill="none" xmlns="http://www.w3.org/2000/svg">
<path d="M6.44444 11.3745H4.77778C3.96296 11.3745 3.2963 12.0045 3.2963 12.7745V12.9495H2.55556C2.25185 12.9495 2 13.1875 2 13.4745C2 13.7615 2.25185 13.9995 2.55556 13.9995H11.4444C11.7481 13.9995 12 13.7615 12 13.4745C12 13.1875 11.7481 12.9495 11.4444 12.9495H10.7037V12.7745C10.7037 12.0045 10.037 11.3745 9.22222 11.3745H7.55556V9.77148C7.37037 9.79248 7.18518 9.79948 7 9.79948C6.81481 9.79948 6.62963 9.79248 6.44444 9.77148V11.3745Z" fill="white"/>
<path d="M11.6667 6.88571C12.142 6.70714 12.5597 6.41429 12.8909 6.08571C13.5607 5.35 14 4.47143 14 3.44286C14 2.41429 13.1862 1.60714 12.1492 1.60714H11.7459C11.2778 0.657143 10.2984 0 9.16049 0H4.83951C3.70165 0 2.72222 0.657143 2.25412 1.60714H1.85082C0.813786 1.60714 0 2.41429 0 3.44286C0 4.47143 0.4393 5.35 1.10905 6.08571C1.44033 6.41429 1.85802 6.70714 2.33333 6.88571C3.0823 8.71429 4.88272 10 7 10C9.11728 10 10.9177 8.71429 11.6667 6.88571ZM9.04527 4.60714L8.59877 5.15C8.52675 5.22857 8.47634 5.38571 8.48354 5.49286L8.52675 6.19286C8.55556 6.62143 8.24589 6.84286 7.84259 6.68571L7.18724 6.42857C7.08642 6.39286 6.91358 6.39286 6.81276 6.42857L6.15741 6.68571C5.75412 6.84286 5.44445 6.62143 5.47325 6.19286L5.51646 5.49286C5.52366 5.38571 5.47325 5.22857 5.40123 5.15L4.95473 4.60714C4.67387 4.27857 4.7963 3.91429 5.21399 3.80714L5.89815 3.63571C6.00617 3.60714 6.1358 3.50714 6.19342 3.41429L6.5751 2.82857C6.81276 2.46429 7.18724 2.46429 7.4249 2.82857L7.80659 3.41429C7.8642 3.50714 7.99383 3.60714 8.10185 3.63571L8.78601 3.80714C9.2037 3.91429 9.32613 4.27857 9.04527 4.60714Z" fill="white"/>
</svg>
