<svg width="103" height="26" viewBox="0 0 103 26" fill="none" xmlns="http://www.w3.org/2000/svg">
<rect x="55" width="48" height="26" rx="6" fill="white"/>
<path d="M66.5584 19H63.7184V5.66H69.9584C71.3584 5.66 72.4518 6.07333 73.2384 6.9C74.0384 7.71333 74.4384 8.73333 74.4384 9.96C74.4384 11.1733 74.0384 12.1933 73.2384 13.02C72.4384 13.8467 71.3451 14.26 69.9584 14.26H66.5584V19ZM69.5784 11.76C70.1518 11.76 70.6184 11.6 70.9784 11.28C71.3518 10.9467 71.5384 10.5067 71.5384 9.96C71.5384 9.41333 71.3518 8.98 70.9784 8.66C70.6184 8.32667 70.1518 8.16 69.5784 8.16H66.5584V11.76H69.5784ZM84.0883 19H81.5483V18C80.8549 18.8267 79.8349 19.24 78.4883 19.24C77.6216 19.24 76.8416 18.96 76.1483 18.4C75.4683 17.8267 75.1283 17.04 75.1283 16.04C75.1283 15 75.4616 14.22 76.1283 13.7C76.8083 13.18 77.5949 12.92 78.4883 12.92C79.8616 12.92 80.8816 13.3133 81.5483 14.1V12.8C81.5483 12.3067 81.3549 11.9133 80.9683 11.62C80.5816 11.3267 80.0683 11.18 79.4283 11.18C78.3749 11.18 77.4349 11.56 76.6083 12.32L75.6483 10.62C76.7949 9.60667 78.2016 9.1 79.8683 9.1C81.1083 9.1 82.1216 9.38667 82.9083 9.96C83.6949 10.5333 84.0883 11.4667 84.0883 12.76V19ZM79.5083 17.52C80.4549 17.52 81.1349 17.24 81.5483 16.68V15.48C81.1349 14.92 80.4549 14.64 79.5083 14.64C78.9883 14.64 78.5549 14.7733 78.2083 15.04C77.8616 15.2933 77.6883 15.6467 77.6883 16.1C77.6883 16.54 77.8616 16.8867 78.2083 17.14C78.5549 17.3933 78.9883 17.52 79.5083 17.52ZM86.2677 22.78L86.6477 20.5C86.8877 20.6067 87.1543 20.66 87.4477 20.66C88.1277 20.66 88.5743 20.4267 88.7877 19.96L89.1477 19.14L85.2277 9.34H87.9477L90.4677 16.06L92.9877 9.34H95.7277L91.1877 20.58C90.8543 21.4333 90.3877 22.0267 89.7877 22.36C89.1877 22.7067 88.4343 22.8933 87.5277 22.92C87.061 22.92 86.641 22.8733 86.2677 22.78Z" fill="black"/>
<path d="M14.3359 17.761H11.8118V11.7467C11.8118 10.7344 11.3386 10.2283 10.392 10.2283C9.98451 10.2283 9.60327 10.34 9.24832 10.5635C8.90652 10.787 8.63045 11.0433 8.42012 11.3326V17.761H5.89605V11.7467C5.89605 10.7344 5.42279 10.2283 4.47627 10.2283C4.08188 10.2283 3.70722 10.34 3.35227 10.5635C2.99732 10.787 2.71468 11.0499 2.50434 11.3523V17.761H0V8.23663H2.50434V9.47894C2.74097 9.13714 3.15508 8.80849 3.74666 8.49298C4.33823 8.16433 4.96268 8 5.61998 8C7.00033 8 7.88112 8.57843 8.26236 9.73529C8.56472 9.26203 9.01169 8.8545 9.60327 8.5127C10.208 8.1709 10.8522 8 11.5358 8C12.4297 8 13.1199 8.2432 13.6063 8.72961C14.0927 9.20287 14.3359 9.91934 14.3359 10.879V17.761Z" fill="white"/>
<path d="M24.8771 16.5582C23.9568 17.5178 22.7342 17.9977 21.2093 17.9977C19.6843 17.9977 18.4617 17.5178 17.5415 16.5582C16.6344 15.5853 16.1809 14.3956 16.1809 12.989C16.1809 11.5823 16.6344 10.3992 17.5415 9.4395C18.4617 8.47983 19.6843 8 21.2093 8C22.7342 8 23.9568 8.47983 24.8771 9.4395C25.7973 10.3992 26.2574 11.5823 26.2574 12.989C26.2574 14.3956 25.7973 15.5853 24.8771 16.5582ZM19.4345 14.9806C19.8684 15.5065 20.4599 15.7694 21.2093 15.7694C21.9586 15.7694 22.5502 15.5065 22.984 14.9806C23.431 14.4416 23.6545 13.7777 23.6545 12.989C23.6545 12.2133 23.431 11.5626 22.984 11.0368C22.5502 10.4978 21.9586 10.2283 21.2093 10.2283C20.4599 10.2283 19.8684 10.4978 19.4345 11.0368C19.0007 11.5626 18.7838 12.2133 18.7838 12.989C18.7838 13.7777 19.0007 14.4416 19.4345 14.9806Z" fill="white"/>
<path d="M37.0481 17.761H34.5438V12.003C34.5438 10.8198 33.9588 10.2283 32.7888 10.2283C31.8817 10.2283 31.1587 10.6029 30.6197 11.3523V17.761H28.1153V8.23663H30.6197V9.47894C31.4479 8.49298 32.5587 8 33.9522 8C34.9776 8 35.7467 8.2695 36.2594 8.80849C36.7852 9.34748 37.0481 10.0902 37.0481 11.0368V17.761Z" fill="white"/>
<path d="M47.6197 16.5582C46.6994 17.5178 45.4768 17.9977 43.9519 17.9977C42.4269 17.9977 41.2043 17.5178 40.2841 16.5582C39.377 15.5853 38.9235 14.3956 38.9235 12.989C38.9235 11.5823 39.377 10.3992 40.2841 9.4395C41.2043 8.47983 42.4269 8 43.9519 8C45.4768 8 46.6994 8.47983 47.6197 9.4395C48.5399 10.3992 49 11.5823 49 12.989C49 14.3956 48.5399 15.5853 47.6197 16.5582ZM42.1771 14.9806C42.611 15.5065 43.2025 15.7694 43.9519 15.7694C44.7012 15.7694 45.2928 15.5065 45.7266 14.9806C46.1736 14.4416 46.3971 13.7777 46.3971 12.989C46.3971 12.2133 46.1736 11.5626 45.7266 11.0368C45.2928 10.4978 44.7012 10.2283 43.9519 10.2283C43.2025 10.2283 42.611 10.4978 42.1771 11.0368C41.7433 11.5626 41.5264 12.2133 41.5264 12.989C41.5264 13.7777 41.7433 14.4416 42.1771 14.9806Z" fill="white"/>
</svg>
