<svg width="16" height="16" viewBox="0 0 16 16" fill="none" xmlns="http://www.w3.org/2000/svg">
<path fill-rule="evenodd" clip-rule="evenodd" d="M5.16791 2C3.45608 2 1.74223 2.84658 1.12413 4.77481C0.894327 5.49171 0.648711 6.39713 0.404634 7.53544C-0.105561 9.91484 -0.0486186 11.5116 0.118499 12.4869C0.29557 13.5204 1.16743 14 1.95002 14C2.64296 14 3.29955 13.661 3.73398 13.0766L4.86416 11.5561C5.18934 11.1187 5.68279 10.8627 6.20583 10.8627H9.79416C10.3172 10.8627 10.8107 11.1187 11.1358 11.5561L12.266 13.0766C12.7004 13.661 13.357 14 14.05 14C14.8326 14 15.7044 13.5204 15.8815 12.4869C16.0486 11.5116 16.1056 9.91484 15.5954 7.53544C15.3513 6.39716 15.1057 5.49175 14.8759 4.77486C14.2578 2.84661 12.5439 2 10.8321 2H5.16791ZM5.08502 4.5098C5.42489 4.5098 5.7004 4.80828 5.7004 5.17647V5.76471H6.25101C6.59088 5.76471 6.8664 6.06318 6.8664 6.43137C6.8664 6.79956 6.59088 7.09804 6.25101 7.09804H5.7004V7.68627C5.7004 8.05446 5.42489 8.35294 5.08502 8.35294C4.74515 8.35294 4.46964 8.05446 4.46964 7.68627V7.09804H3.91903C3.57916 7.09804 3.30364 6.79956 3.30364 6.43137C3.30364 6.06318 3.57916 5.76471 3.91903 5.76471H4.46964V5.17647C4.46964 4.80828 4.74515 4.5098 5.08502 4.5098ZM10.7401 7.05879C10.5147 7.05879 10.332 7.25544 10.332 7.49801V7.87448C10.332 8.11705 10.5147 8.3137 10.7401 8.3137H11.0899C11.3153 8.3137 11.498 8.11705 11.498 7.87448V7.49801C11.498 7.25544 11.3153 7.05879 11.0899 7.05879H10.7401ZM10.7401 4.54899C10.5147 4.54899 10.332 4.74563 10.332 4.98821V5.36468C10.332 5.60725 10.5147 5.80389 10.7401 5.80389H11.0899C11.3153 5.80389 11.498 5.60725 11.498 5.36468V4.98821C11.498 4.74563 11.3153 4.54899 11.0899 4.54899H10.7401ZM11.9061 5.80389C11.6807 5.80389 11.498 6.00054 11.498 6.24311V6.61958C11.498 6.86215 11.6807 7.05879 11.9061 7.05879H12.2559C12.4813 7.05879 12.664 6.86215 12.664 6.61958V6.24311C12.664 6.00054 12.4813 5.80389 12.2559 5.80389H11.9061ZM9.57411 5.80389C9.34873 5.80389 9.16601 6.00054 9.16601 6.24311V6.61958C9.16601 6.86215 9.34873 7.05879 9.57411 7.05879H9.92391C10.1493 7.05879 10.332 6.86215 10.332 6.61958V6.24311C10.332 6.00054 10.1493 5.80389 9.92391 5.80389H9.57411Z" fill="white"/>
</svg>
